<?xml version="1.0" encoding="UTF-8" standalone="no"?>
<!-- Created with Inkscape (http://www.inkscape.org/) -->

<svg
   xmlns:dc="http://purl.org/dc/elements/1.1/"
   xmlns:cc="http://creativecommons.org/ns#"
   xmlns:rdf="http://www.w3.org/1999/02/22-rdf-syntax-ns#"
   xmlns:svg="http://www.w3.org/2000/svg"
   xmlns="http://www.w3.org/2000/svg"
   xmlns:sodipodi="http://sodipodi.sourceforge.net/DTD/sodipodi-0.dtd"
   xmlns:inkscape="http://www.inkscape.org/namespaces/inkscape"
   width="208"
   height="40"
   id="svg2"
   version="1.1"
   inkscape:version="0.47 r22583"
   sodipodi:docname="noah_logo.svg"
   inkscape:export-filename="/home/psj/dev/hg/noah3k/static/image/noah_logo.png"
   inkscape:export-xdpi="90"
   inkscape:export-ydpi="90">
  <defs
     id="defs4">
    <inkscape:perspective
       sodipodi:type="inkscape:persp3d"
       inkscape:vp_x="0 : 526.18109 : 1"
       inkscape:vp_y="0 : 1000 : 0"
       inkscape:vp_z="744.09448 : 526.18109 : 1"
       inkscape:persp3d-origin="372.04724 : 350.78739 : 1"
       id="perspective10" />
    <inkscape:perspective
       id="perspective2832"
       inkscape:persp3d-origin="0.5 : 0.33333333 : 1"
       inkscape:vp_z="1 : 0.5 : 1"
       inkscape:vp_y="0 : 1000 : 0"
       inkscape:vp_x="0 : 0.5 : 1"
       sodipodi:type="inkscape:persp3d" />
    <filter
       inkscape:collect="always"
       id="filter3783">
      <feGaussianBlur
         inkscape:collect="always"
         stdDeviation="0.35229069"
         id="feGaussianBlur3785" />
    </filter>
    <filter
       inkscape:collect="always"
       id="filter3843">
      <feGaussianBlur
         inkscape:collect="always"
         stdDeviation="0.17624512"
         id="feGaussianBlur3845" />
    </filter>
  </defs>
  <sodipodi:namedview
     id="base"
     pagecolor="#ffffff"
     bordercolor="#666666"
     borderopacity="1.0"
     inkscape:pageopacity="0.0"
     inkscape:pageshadow="2"
     inkscape:zoom="0.98994949"
     inkscape:cx="230.98201"
     inkscape:cy="-94.898731"
     inkscape:document-units="px"
     inkscape:current-layer="layer1"
     showgrid="false"
     inkscape:window-width="1288"
     inkscape:window-height="731"
     inkscape:window-x="553"
     inkscape:window-y="158"
     inkscape:window-maximized="0" />
  <metadata
     id="metadata7">
    <rdf:RDF>
      <cc:Work
         rdf:about="">
        <dc:format>image/svg+xml</dc:format>
        <dc:type
           rdf:resource="http://purl.org/dc/dcmitype/StillImage" />
        <dc:title></dc:title>
      </cc:Work>
    </rdf:RDF>
  </metadata>
  <g
     inkscape:label="Layer 1"
     inkscape:groupmode="layer"
     id="layer1"
     transform="translate(0,-1012.3622)">
    <g
       id="g3852">
      <path
         d="m 10.158392,1046.0376 c 0.01562,0.4531 0.210929,0.7266 0.585937,0.8203 l 3,0.8203 0.07031,1.2188 c -2.109385,-0.047 -3.8437583,-0.07 -5.203125,-0.07 -1.3437555,0 -3.1015663,0.023 -5.2734375,0.07 l -0.1171875,-1.1719 3.140625,-0.8672 c 0.406245,-0.125 0.6171822,-0.3672 0.6328125,-0.7266 0.031245,-1.2656 0.04687,-2.8203 0.046875,-4.664 l 0,-18.6797 c -5.3e-6,-1.5625 -0.01563,-2.8593 -0.046875,-3.8906 -0.01563,-0.4062 -0.2031301,-0.6641 -0.5625,-0.7735 l -3.140625,-0.914 -0.070312,-1.1953 c 2.1874963,0.062 3.8671821,0.094 5.0390625,0.094 1.5312419,0 2.984365,-0.031 4.359375,-0.094 l 15.585937,19.5234 c 0.624973,0.7813 1.265597,1.6094 1.921875,2.4844 -0.03128,-1.0781 -0.0469,-2.1172 -0.04687,-3.1172 l 0,-12.211 c -2.8e-5,-1.5155 -0.01565,-2.8202 -0.04687,-3.914 -0.01565,-0.3594 -0.218779,-0.5937 -0.609375,-0.7031 l -3,-0.8204 -0.07031,-1.2421 c 2.156224,0.062 3.906222,0.094 5.25,0.094 1.374969,0 3.117154,-0.031 5.226562,-0.094 l 0.117188,1.1953 -3.1875,0.914 c -0.359406,0.1094 -0.546906,0.3673 -0.5625,0.7735 -0.04691,1.0313 -0.07034,2.3281 -0.07031,3.8906 l 0,26.0391 -2.695313,0.2578 -18.46875,-23.1328 c -0.546884,-0.7031 -1.179696,-1.5391 -1.898437,-2.5079 0.03124,1.1563 0.04687,2.2188 0.04687,3.1875 l 0,14.836 c -8e-6,1.8437 0.01562,3.3672 0.04687,4.5703"
         style="font-size:48px;font-style:normal;font-variant:normal;font-weight:bold;font-stretch:normal;fill:#555c5f;fill-opacity:1;stroke:none;font-family:Constantia;-inkscape-font-specification:Constantia Bold"
         id="path3688" />
      <path
         d="m 48.244329,1032.022 c -1e-5,5 0.843739,8.8281 2.53125,11.4843 1.687486,2.6407 4.164046,3.961 7.429688,3.961 3.218727,0 5.593724,-1.2031 7.125,-3.6094 1.546846,-2.4062 2.320283,-6.1875 2.320312,-11.3437 -2.9e-5,-4.8438 -0.812528,-8.5625 -2.4375,-11.1563 -1.625025,-2.6093 -4.140648,-3.914 -7.546875,-3.9141 -3.296891,10e-5 -5.695326,1.211 -7.195312,3.6329 -1.484386,2.4062 -2.226573,6.0547 -2.226563,10.9453 m 27.28125,-0.3047 c -3.7e-5,5.4062 -1.593785,9.7578 -4.78125,13.0547 -3.187529,3.2812 -7.625025,4.9218 -13.3125,4.9218 -5.437513,0 -9.640634,-1.5156 -12.609375,-4.5468 -2.968753,-3.0469 -4.453127,-7.1641 -4.453125,-12.3516 -2e-6,-5.4062 1.601559,-9.6797 4.804688,-12.8203 3.203115,-3.1562 7.632798,-4.7343 13.289062,-4.7344 5.437475,1e-4 9.640595,1.4766 12.609375,4.4297 2.968714,2.9375 4.453088,6.9532 4.453125,12.0469"
         style="font-size:48px;font-style:normal;font-variant:normal;font-weight:bold;font-stretch:normal;fill:#f48b3f;fill-opacity:1;stroke:none;font-family:Constantia;-inkscape-font-specification:Constantia Bold"
         id="path3690" />
      <path
         d="m 85.299017,1038.4204 -1.664063,4.3828 c -0.328131,0.8594 -0.585944,1.5547 -0.773437,2.086 -0.171881,0.5156 -0.257819,0.914 -0.257813,1.1953 -6e-6,0.2656 0.07031,0.4687 0.210938,0.6093 0.140618,0.1407 0.359368,0.25 0.65625,0.3282 l 2.25,0.6562 0.07031,1.2188 c -2.265632,-0.047 -4.10938,-0.07 -5.53125,-0.07 -1.484377,0 -3.179688,0.023 -5.085937,0.07 l -0.117188,-1.1719 2.507813,-0.75 c 0.593748,-0.1719 1.031248,-0.4531 1.3125,-0.8438 0.281247,-0.4062 0.593747,-1.0156 0.9375,-1.8281 l 11.671875,-28.4297 2.53125,-0.375 10.101565,28.5 c 0.3906,1.0938 0.74216,1.836 1.05469,2.2266 0.32809,0.375 0.78903,0.6484 1.38281,0.8203 l 2.29687,0.6797 0.0703,1.1719 c -2.10941,-0.047 -4.23441,-0.07 -6.375,-0.07 -2.828153,0 -5.585963,0.023 -8.273443,0.07 l -0.117187,-1.1719 2.320312,-0.6797 c 0.31248,-0.094 0.539042,-0.2109 0.679688,-0.3516 0.140604,-0.1406 0.210916,-0.3515 0.210937,-0.6328 -2.1e-5,-0.3125 -0.07814,-0.7187 -0.234375,-1.2187 -0.15627,-0.5156 -0.382832,-1.1875 -0.679687,-2.0156 l -1.546875,-4.4063 -9.609375,0 m 5.0625,-13.4531 c -0.281264,0.8125 -0.585951,1.6563 -0.914063,2.5312 l -3.210937,8.4844 7.828125,0 -2.882813,-8.4609 c -0.296889,-0.8906 -0.570326,-1.7422 -0.820312,-2.5547"
         style="font-size:48px;font-style:normal;font-variant:normal;font-weight:bold;font-stretch:normal;fill:#095699;fill-opacity:1;stroke:none;font-family:Constantia;-inkscape-font-specification:Constantia Bold"
         id="path3692" />
      <path
         d="m 121.43964,1032.772 0,8.6953 c -1e-5,1.8437 0.0156,3.3828 0.0469,4.6172 0.0156,0.4375 0.21873,0.7109 0.60937,0.8203 l 2.71875,0.8203 0.0703,1.1719 c -1.93751,-0.047 -4.22657,-0.07 -6.86718,-0.07 -2.70313,0 -5.14063,0.023 -7.3125,0.07 l -0.11719,-1.1719 3.14062,-0.8672 c 0.40625,-0.125 0.61719,-0.3672 0.63282,-0.7266 0.0312,-1.2656 0.0469,-2.8203 0.0469,-4.664 l 0,-18.6797 c 0,-1.5625 -0.0156,-2.8593 -0.0469,-3.8906 -0.0156,-0.4062 -0.20313,-0.6641 -0.5625,-0.7735 l -3.14063,-0.914 -0.0703,-1.1953 c 2.17187,0.062 4.57812,0.094 7.21875,0.094 2.71874,0 5.03124,-0.031 6.9375,-0.094 l 0.14062,1.1953 -2.78906,0.7968 c -0.39064,0.1095 -0.59376,0.3516 -0.60937,0.7266 -0.0313,1.125 -0.0469,2.4454 -0.0469,3.9609 l 0,7.5938 13.96875,0 0,-7.5938 c -2e-5,-1.5155 -0.0156,-2.8359 -0.0469,-3.9609 -0.0157,-0.375 -0.21878,-0.6171 -0.60938,-0.7266 l -2.74219,-0.7968 -0.0703,-1.1953 c 1.98435,0.062 4.3281,0.094 7.03125,0.094 2.64059,0 5.0234,-0.031 7.14844,-0.094 l 0.11719,1.1953 -3.1875,0.914 c -0.35941,0.1094 -0.55472,0.3673 -0.58594,0.7735 -0.0313,1.0313 -0.0469,2.3281 -0.0469,3.8906 l 0,18.6797 c -3e-5,1.8437 0.0156,3.3984 0.0469,4.664 0.0312,0.3594 0.24997,0.6016 0.65625,0.7266 l 3.04687,0.8672 0.0703,1.1719 c -2.23441,-0.047 -4.70316,-0.07 -7.40625,-0.07 -2.64066,0 -4.89847,0.023 -6.77344,0.07 l -0.11719,-1.1719 2.8125,-0.8203 c 0.3906,-0.1094 0.59373,-0.3828 0.60938,-0.8203 0.0312,-1.2344 0.0468,-2.7735 0.0469,-4.6172 l 0,-8.6953 -13.96875,0"
         style="font-size:48px;font-style:normal;font-variant:normal;font-weight:bold;font-stretch:normal;fill:#0090ce;fill-opacity:1;stroke:none;font-family:Constantia;-inkscape-font-specification:Constantia Bold"
         id="path3694" />
    </g>
    <g
       id="g3858">
      <path
         d="m 158.59749,1049.2358 c -0.7155,0.2963 -1.46518,0.4444 -2.24903,0.4444 -1.26237,0 -2.23307,-0.376 -2.9121,-1.128 -0.67448,-0.7565 -1.01172,-1.873 -1.01172,-3.3496 0,-0.7155 0.0934,-1.3626 0.28027,-1.9414 0.18685,-0.5787 0.45345,-1.0686 0.7998,-1.4697 0.34636,-0.4056 0.76563,-0.7178 1.25782,-0.9365 0.49218,-0.2188 1.04361,-0.3281 1.65429,-0.3281 0.41471,0 0.7998,0.036 1.15528,0.1093 0.35546,0.068 0.69726,0.1755 1.02539,0.3213 l 0,1.1963 c -0.32358,-0.1777 -0.65854,-0.3122 -1.00488,-0.4033 -0.34636,-0.096 -0.72462,-0.1436 -1.13477,-0.1436 -0.41928,0 -0.79981,0.08 -1.1416,0.2393 -0.33724,0.1549 -0.62435,0.3828 -0.86133,0.6836 -0.23698,0.2962 -0.41927,0.6608 -0.54687,1.0937 -0.12761,0.4284 -0.19141,0.9183 -0.19141,1.4698 0,1.1575 0.2347,2.0302 0.7041,2.6181 0.4694,0.5879 1.15755,0.8819 2.06445,0.8819 0.38281,0 0.74967,-0.043 1.10059,-0.1299 0.3509,-0.091 0.68814,-0.2165 1.01172,-0.376 l 0,1.1484"
         style="font-size:14px;font-style:normal;font-variant:normal;font-weight:normal;font-stretch:normal;fill:#095699;fill-opacity:1;stroke:none;font-family:Consolas;-inkscape-font-specification:Consolas"
         id="path3728" />
      <path
         d="m 166.3221,1047.1509 c -1e-5,0.4238 -0.0866,0.7952 -0.25977,1.1142 -0.17318,0.319 -0.41472,0.5856 -0.72461,0.7998 -0.3099,0.2097 -0.6836,0.3669 -1.12109,0.4717 -0.43295,0.1048 -0.91146,0.1572 -1.43555,0.1572 -0.23698,0 -0.47396,-0.01 -0.71094,-0.027 -0.23242,-0.018 -0.45801,-0.041 -0.67675,-0.068 -0.2142,-0.027 -0.417,-0.059 -0.6084,-0.096 -0.19141,-0.036 -0.36459,-0.075 -0.51953,-0.1162 l 0,-1.1758 c 0.34179,0.1277 0.72461,0.2279 1.14843,0.3008 0.42839,0.073 0.91374,0.1094 1.45606,0.1094 0.39192,0 0.7246,-0.03 0.99805,-0.089 0.27799,-0.064 0.50357,-0.1549 0.67675,-0.2734 0.17773,-0.123 0.30534,-0.2712 0.38282,-0.4443 0.082,-0.1732 0.12304,-0.3715 0.12304,-0.5948 0,-0.2415 -0.0684,-0.4466 -0.20507,-0.6152 -0.13217,-0.1732 -0.30763,-0.3258 -0.52637,-0.458 -0.21876,-0.1367 -0.46941,-0.2598 -0.75196,-0.3691 -0.27799,-0.114 -0.56282,-0.2302 -0.85449,-0.3487 -0.29167,-0.1185 -0.57878,-0.2461 -0.86133,-0.3828 -0.27799,-0.1413 -0.52636,-0.3053 -0.74511,-0.4922 -0.21875,-0.1914 -0.39649,-0.4147 -0.53321,-0.6699 -0.13216,-0.2552 -0.19824,-0.5583 -0.19824,-0.9092 0,-0.3053 0.0638,-0.6061 0.19141,-0.9023 0.1276,-0.2962 0.32584,-0.5583 0.59472,-0.7862 0.26888,-0.2324 0.61296,-0.4192 1.03223,-0.5605 0.42383,-0.1413 0.92741,-0.2119 1.51074,-0.2119 0.15039,0 0.31217,0.01 0.48536,0.02 0.17772,0.014 0.35546,0.034 0.5332,0.062 0.18228,0.023 0.36002,0.05 0.5332,0.082 0.17773,0.032 0.34179,0.066 0.49219,0.1026 l 0,1.0937 c -0.35092,-0.1002 -0.70183,-0.1754 -1.05274,-0.2256 -0.35091,-0.055 -0.69043,-0.082 -1.01855,-0.082 -0.69727,0 -1.20996,0.1162 -1.53809,0.3487 -0.32812,0.2324 -0.49219,0.5446 -0.49218,0.9365 -1e-5,0.2415 0.0661,0.4489 0.19824,0.622 0.13671,0.1732 0.31445,0.3282 0.5332,0.4649 0.21875,0.1367 0.46712,0.262 0.74512,0.376 0.28255,0.1093 0.56966,0.2233 0.86133,0.3418 0.29166,0.1185 0.57649,0.2483 0.85449,0.3896 0.28255,0.1413 0.5332,0.3099 0.75195,0.5059 0.21875,0.1914 0.3942,0.417 0.52637,0.6767 0.13671,0.2598 0.20507,0.5674 0.20508,0.9229"
         style="font-size:14px;font-style:normal;font-variant:normal;font-weight:normal;font-stretch:normal;fill:#0090ce;fill-opacity:1;stroke:none;font-family:Consolas;-inkscape-font-specification:Consolas"
         id="path3730" />
      <path
         d="m 174.37483,1049.5708 -1.53125,0 -3.34277,-4.3818 0,4.3818 -1.2168,0 0,-8.9346 1.2168,0 0,4.1494 3.27441,-4.1494 1.44239,0 -3.52735,4.2451 3.68457,4.6895"
         style="font-size:14px;font-style:normal;font-variant:normal;font-weight:normal;font-stretch:normal;fill:#000000;fill-opacity:1;stroke:none;font-family:Consolas;-inkscape-font-specification:Consolas"
         id="path3732" />
      <path
         d="m 182.55745,1049.5708 -1.32617,0 -0.62207,-1.9482 -3.71875,0 -0.62891,1.9482 -1.26465,0 2.9668,-8.9346 1.66797,0 2.92578,8.9346 m -2.29688,-3.0352 -1.51074,-4.7783 -1.51074,4.7783 3.02148,0"
         style="font-size:14px;font-style:normal;font-variant:normal;font-weight:normal;font-stretch:normal;fill:#000000;fill-opacity:1;stroke:none;font-family:Consolas;-inkscape-font-specification:Consolas"
         id="path3734" />
      <path
         d="m 185.87288,1041.6616 -2.05762,0 0,-1.0254 5.3457,0 0,1.0254 -2.05761,0 0,6.8701 2.05761,0 0,1.0391 -5.3457,0 0,-1.0391 2.05762,0 0,-6.8701"
         style="font-size:14px;font-style:normal;font-variant:normal;font-weight:normal;font-stretch:normal;fill:#000000;fill-opacity:1;stroke:none;font-family:Consolas;-inkscape-font-specification:Consolas"
         id="path3736" />
      <path
         d="m 197.16585,1047.1509 c -1e-5,0.4238 -0.0866,0.7952 -0.25977,1.1142 -0.17318,0.319 -0.41472,0.5856 -0.72461,0.7998 -0.3099,0.2097 -0.6836,0.3669 -1.12109,0.4717 -0.43295,0.1048 -0.91146,0.1572 -1.43555,0.1572 -0.23698,0 -0.47396,-0.01 -0.71094,-0.027 -0.23242,-0.018 -0.45801,-0.041 -0.67675,-0.068 -0.2142,-0.027 -0.417,-0.059 -0.6084,-0.096 -0.19141,-0.036 -0.36459,-0.075 -0.51953,-0.1162 l 0,-1.1758 c 0.34179,0.1277 0.72461,0.2279 1.14843,0.3008 0.42839,0.073 0.91374,0.1094 1.45606,0.1094 0.39192,0 0.7246,-0.03 0.99805,-0.089 0.27799,-0.064 0.50357,-0.1549 0.67675,-0.2734 0.17773,-0.123 0.30534,-0.2712 0.38282,-0.4443 0.082,-0.1732 0.12304,-0.3715 0.12304,-0.5948 0,-0.2415 -0.0684,-0.4466 -0.20507,-0.6152 -0.13217,-0.1732 -0.30763,-0.3258 -0.52637,-0.458 -0.21876,-0.1367 -0.46941,-0.2598 -0.75196,-0.3691 -0.27799,-0.114 -0.56282,-0.2302 -0.85449,-0.3487 -0.29167,-0.1185 -0.57878,-0.2461 -0.86133,-0.3828 -0.27799,-0.1413 -0.52636,-0.3053 -0.74511,-0.4922 -0.21875,-0.1914 -0.39649,-0.4147 -0.53321,-0.6699 -0.13216,-0.2552 -0.19824,-0.5583 -0.19824,-0.9092 0,-0.3053 0.0638,-0.6061 0.19141,-0.9023 0.1276,-0.2962 0.32584,-0.5583 0.59472,-0.7862 0.26888,-0.2324 0.61296,-0.4192 1.03223,-0.5605 0.42383,-0.1413 0.92741,-0.2119 1.51074,-0.2119 0.15039,0 0.31217,0.01 0.48536,0.02 0.17772,0.014 0.35546,0.034 0.5332,0.062 0.18228,0.023 0.36002,0.05 0.5332,0.082 0.17773,0.032 0.34179,0.066 0.49219,0.1026 l 0,1.0937 c -0.35092,-0.1002 -0.70183,-0.1754 -1.05274,-0.2256 -0.35091,-0.055 -0.69043,-0.082 -1.01855,-0.082 -0.69727,0 -1.20996,0.1162 -1.53809,0.3487 -0.32812,0.2324 -0.49219,0.5446 -0.49218,0.9365 -1e-5,0.2415 0.0661,0.4489 0.19824,0.622 0.13671,0.1732 0.31445,0.3282 0.5332,0.4649 0.21875,0.1367 0.46712,0.262 0.74512,0.376 0.28255,0.1093 0.56966,0.2233 0.86133,0.3418 0.29166,0.1185 0.57649,0.2483 0.85449,0.3896 0.28255,0.1413 0.5332,0.3099 0.75195,0.5059 0.21875,0.1914 0.3942,0.417 0.52637,0.6767 0.13671,0.2598 0.20507,0.5674 0.20508,0.9229"
         style="font-size:14px;font-style:normal;font-variant:normal;font-weight:normal;font-stretch:normal;fill:#000000;fill-opacity:1;stroke:none;font-family:Consolas;-inkscape-font-specification:Consolas"
         id="path3738" />
      <path
         d="m 205.17073,1041.6753 -2.64551,0 0,7.8955 -1.23047,0 0,-7.8955 -2.6455,0 0,-1.0391 6.52148,0 0,1.0391"
         style="font-size:14px;font-style:normal;font-variant:normal;font-weight:normal;font-stretch:normal;fill:#000000;fill-opacity:1;stroke:none;font-family:Consolas;-inkscape-font-specification:Consolas"
         id="path3740" />
    </g>
    <g
       id="g3847"
       transform="translate(-2.8652863e-6,1.9999983)">
      <text
         id="text2842"
         y="1026.7407"
         x="164.57552"
         style="font-size:40px;font-style:normal;font-weight:normal;fill:#ff0000;fill-opacity:1;stroke:none;filter:url(#filter3843);font-family:Bitstream Vera Sans"
         xml:space="preserve"><tspan
           style="font-size:10px;font-style:normal;font-variant:normal;font-weight:normal;font-stretch:normal;fill:#ff0000;fill-opacity:1;font-family:Segoe Script;-inkscape-font-specification:Segoe Script"
           y="1026.7407"
           x="164.57552"
           id="tspan2844"
           sodipodi:role="line">BETA</tspan></text>
      <rect
         transform="translate(0,1012.3622)"
         y="4.1395845"
         x="162.63457"
         height="13.637059"
         width="33.335033"
         id="rect3753"
         style="fill:none;stroke:#808080;stroke-opacity:1;filter:url(#filter3783)" />
    </g>
  </g>
</svg>
